<svg xmlns="http://www.w3.org/2000/svg" viewBox="0 0 64 64"><path fill="#ffcd49" d="M63 31.8c-.1-11.9-9.9-21.7-21.8-21.8H41c-6.4 0-12.3 1.9-17.3 5.3l3.3 3.3c.1.1.2.3.3.4-2.4-2-5.9-1.9-8.1.3-6.2 6.3-6.2 16.4.1 22.7l-5-5c-1.3-1.3-2.3-2.8-3.1-4.4-.8 2.6-1.2 5.5-1.2 8.4v.2c.1 11.9 9.9 21.7 21.8 21.8 1 0 2.1 0 3.2-.1C49.6 61.5 61.5 49.6 62.9 35c.1-1.1.1-2.2.1-3.2zM43.3 43.4c-2.3 2.3-6.1 2.3-8.5 0L32 40.5c-.4-.4-.7-.8-.9-1.2 2.3 1.3 5.3 1 7.2-.9 2.3-2.3 6.1-2.3 8.5 0l4.2 4.2c.1.1.2.3.3.4-2.3-1.9-5.8-1.9-8 .4z"/><path fill="#5e52c4" d="M32 64C14.4 64 0 49.6 0 32S14.4 0 32 0s32 14.4 32 32c0 6.4-1.9 12.5-5.4 17.8-.3.5-.9.6-1.4.3-.5-.3-.6-.9-.3-1.4C60.3 43.7 62 38 62 32 62 15.5 48.5 2 32 2S2 15.5 2 32s13.5 30 30 30c5.1 0 11.9-1.4 16-5.5 4.3-4.3 4.3-11.3 0-15.6L46.1 39c-.9-.9-2.2-1.5-3.5-1.5-1.3 0-2.6.5-3.5 1.5-2.7 2.7-7.2 2.7-9.9 0l-2.8-2.8c-1.3-1.3-2.1-3.1-2.1-4.9s.7-3.6 2.1-4.9c1.9-1.9 1.9-5.1 0-7.1L22.1 15c-.9-.9-2.2-1.5-3.5-1.5-1.3 0-2.6.5-3.5 1.5-5.8 5.8-5.8 15.4 0 21.2l12.6 12.5c2.3 2.3 5.3 3.5 8.5 3.5s6.2-1.2 8.5-3.5c.4-.4 1-.4 1.4 0s.4 1 0 1.4c-2.6 2.6-6.2 4.1-9.9 4.1s-7.3-1.5-9.9-4.1L13.6 37.7C7 31 7 20.2 13.6 13.6c1.3-1.3 3.1-2.1 5-2.1s3.6.7 4.9 2.1l4.2 4.2c2.7 2.7 2.7 7.2 0 9.9-.9.9-1.5 2.2-1.5 3.5s.5 2.6 1.5 3.5l2.8 2.8c1.9 1.9 5.1 1.9 7.1 0 1.3-1.3 3.1-2.1 5-2.1s3.6.7 4.9 2.1l1.9 1.9c2.5 2.5 3.8 5.7 3.8 9.2s-1.4 6.7-3.8 9.2C44.9 62.4 37.5 64 32 64z"/></svg>