<svg xmlns="http://www.w3.org/2000/svg" width="36" height="36"><g transform="translate(0 -1016.362)"><circle cx="18" cy="1034.362" r="18" fill="#ef4c45" fill-rule="evenodd"/><path style="line-height:normal;text-indent:0;text-align:start;text-decoration-line:none;text-decoration-style:solid;text-decoration-color:#000;text-transform:none;block-progression:tb;isolation:auto;mix-blend-mode:normal" fill="#df2209" d="M18.02 36a18 18 0 0 0 1.253-.045 18 18 0 0 0 1.786-.217 18 18 0 0 0 1.755-.394 18 18 0 0 0 1.707-.567 18 18 0 0 0 1.643-.736 18 18 0 0 0 1.56-.895A18 18 0 0 0 29.19 32.1a18 18 0 0 0 1.352-1.188 18 18 0 0 0 1.227-1.316 18 18 0 0 0 1.087-1.432 18 18 0 0 0 .942-1.535 18 18 0 0 0 .781-1.62 18 18 0 0 0 .617-1.689 18 18 0 0 0 .446-1.744 18 18 0 0 0 .195-1.293l-10.33-10.33h-.465a.5.5 0 0 0-.035 0H20.8l-2.514-1.88a.5.5 0 0 0-.328-.102v.013a.5.5 0 0 0-.271.102l-2.506 1.88h-4.676v3.505L8.799 14.75a.5.5 0 0 0-.281.627.5.5 0 0 0-.012.117v10.992a.5.5 0 0 0 .002.047.5.5 0 0 0 .008.047.5.5 0 0 0 .011.047.5.5 0 0 0 .018.045.5.5 0 0 0 .021.043.5.5 0 0 0 .028.04.5.5 0 0 0 .029.038.5.5 0 0 0 .035.035.5.5 0 0 0 .332.143L18.02 36z" color="#000" font-family="sans-serif" font-weight="400" transform="translate(0 1016.362)"/><path style="line-height:normal;text-indent:0;text-align:start;text-decoration-line:none;text-decoration-style:solid;text-decoration-color:#000;text-transform:none;block-progression:tb;isolation:auto;mix-blend-mode:normal" fill="#fff" d="M15.957 6.498V6.5a.5.5 0 0 0-.271.1L13.18 8.48H8.504v3.504l-1.707 1.28a.5.5 0 0 0-.281.627.5.5 0 0 0-.012.117V25a.5.5 0 0 0 0 .002.5.5 0 0 0 .002.047.5.5 0 0 0 0 .002.5.5 0 0 0 .008.047.5.5 0 0 0 0 .002.5.5 0 0 0 .011.047.5.5 0 0 0 0 .002.5.5 0 0 0 .018.045.5.5 0 0 0 0 .002.5.5 0 0 0 .021.042.5.5 0 0 0 0 .002.5.5 0 0 0 .028.042.5.5 0 0 0 0 .002.5.5 0 0 0 .03.037.5.5 0 0 0 0 .002.5.5 0 0 0 .034.035.5.5 0 0 0 .348.142.5.5 0 0 0 .016 0h17.878a.5.5 0 0 0 .606-.564V14.008a.5.5 0 0 0-.037-.195.5.5 0 0 0 0-.002.5.5 0 0 0-.248-.527L23.504 12V8.48h-.465a.5.5 0 0 0-.035-.001h-4.205l-2.514-1.881a.5.5 0 0 0-.328-.1zm.031 1.127 1.143.855h-2.283l1.14-.855ZM9.504 9.48h13v5.194l-.037.023-.03.018-6.45 4.03-6.483-4.042v-2.455a.5.5 0 0 0 0-.014V9.48zm8.514 1.79a.5.5 0 0 0-.05.002.5.5 0 0 0-.34.16l-2.907 3.07-1.364-1.373a.5.5 0 0 0-.359-.152.5.5 0 0 0-.35.857l1.663 1.672a.5.5 0 0 0 .564.195.5.5 0 0 0 .03-.01.5.5 0 0 0 .017-.007.5.5 0 0 0 .027-.012.5.5 0 0 0 .018-.01.5.5 0 0 0 .16-.135l3.228-3.408a.5.5 0 0 0-.337-.85zm-9.514 1.966v.844l-.615-.383.615-.46zm15 .014.582.436-.086.052-.496.31v-.798zm1 1.352v9.472l-5.217-3.486a.5.5 0 0 0-.283-.09v.002a.5.5 0 0 0-.274.92l4.614 3.08H8.654l4.62-3.08a.5.5 0 0 0-.288-.92.5.5 0 0 0-.267.088l-5.215 3.478v-9.431l1 .623.236.146 6.895 4.3.084.052.037.023a.5.5 0 0 0 .002 0 .5.5 0 0 0 .055.022.5.5 0 0 0 .095.025.5.5 0 0 0 .092.006.5.5 0 0 0 .008 0 .5.5 0 0 0 .017-.002.5.5 0 0 0 .024-.002.5.5 0 0 0 .01-.002.5.5 0 0 0 .048-.01.5.5 0 0 0 .047-.013.5.5 0 0 0 .04-.016.5.5 0 0 0 .007-.004.5.5 0 0 0 .008-.004h.01l7.285-4.55v-.003l1-.625z" color="#000" font-family="sans-serif" font-weight="400" overflow="visible" transform="translate(2.001 1017.85)"/></g></svg>